<svg width="20" height="21" viewBox="0 0 20 21" fill="none" xmlns="http://www.w3.org/2000/svg">
<g clip-path="url(#clip0_94_219)">
<path d="M17.5511 17.0583C16.9646 16.8181 16.7137 16.4994 16.738 16.0238C16.7629 15.4686 16.448 15.062 16.2984 14.9013C16.3888 14.5562 16.6528 13.3621 16.2987 12.3249C15.9181 11.2147 14.7561 9.51914 13.5571 7.85244C13.0663 7.16798 13.0431 6.42397 13.0163 5.56246C12.9906 4.74075 12.9616 3.80933 12.5034 2.77391C12.0051 1.6465 11.0054 1 9.76033 1C9.01967 1 8.2594 1.23148 7.67435 1.63502C6.47631 2.46185 6.63467 4.26455 6.73946 5.45741C6.75382 5.62075 6.76733 5.77505 6.7752 5.90679C6.84497 7.07506 6.78149 7.6908 6.69847 7.87795C6.64477 8.00024 6.38037 8.34831 6.10057 8.71684C5.81119 9.09796 5.48312 9.52996 5.2142 9.93252C4.89335 10.4169 4.63433 11.1573 4.38384 11.8733C4.20056 12.3973 4.02744 12.8921 3.85891 13.1879C3.5395 13.7568 3.61898 14.2873 3.68534 14.5325C3.56442 14.6165 3.38973 14.7819 3.24225 15.0936C3.06402 15.4739 2.70238 15.6783 1.95038 15.8229C1.6048 15.8936 1.3665 16.0389 1.24191 16.2548C1.0606 16.569 1.15936 16.9637 1.24945 17.2335C1.38257 17.6301 1.29962 17.8811 1.1488 18.3368C1.11404 18.442 1.07463 18.5611 1.0347 18.6924C0.971813 18.8997 0.994502 19.0882 1.10198 19.2526C1.38598 19.6867 2.21471 19.8399 3.06783 19.9406C3.57721 20.001 4.13472 20.2048 4.67394 20.4019C5.20227 20.595 5.74857 20.7946 6.24516 20.8552C6.32064 20.8647 6.39539 20.8695 6.46746 20.8695C7.21723 20.8695 7.55599 20.372 7.6634 20.1676C7.93271 20.1126 8.86157 19.9367 9.81889 19.913C10.7747 19.8858 11.6995 20.0745 11.9615 20.1332C12.0438 20.2908 12.2609 20.6509 12.607 20.8364C12.7973 20.9404 13.062 21 13.3331 21C13.3332 21 13.3331 21 13.3332 21C13.6228 21 14.1737 20.9315 14.6097 20.4729C15.0446 20.012 16.1311 19.4237 16.9246 18.9941C17.1016 18.8982 17.2673 18.8085 17.4125 18.7275C17.8582 18.4804 18.1014 18.1274 18.0797 17.7589C18.0616 17.4529 17.8591 17.1844 17.5511 17.0583ZM7.68412 16.9696C7.62864 16.5788 7.12589 16.1912 6.54365 15.7424C6.06758 15.3754 5.52797 14.9594 5.37932 14.6072C5.0721 13.8805 5.31427 12.6027 5.7365 11.9447C5.94516 11.6153 6.11558 11.1157 6.28044 10.6325C6.45841 10.1108 6.64247 9.5714 6.84831 9.33527C7.17428 8.96661 7.47553 8.24929 7.52891 7.68398C7.83415 7.97539 8.30767 8.34516 8.74511 8.34516C8.81246 8.34516 8.87783 8.33638 8.94032 8.31874C9.2396 8.23231 9.67981 7.97795 10.1055 7.73204C10.4725 7.51998 10.9251 7.25847 11.0954 7.23466C11.3874 7.65395 13.0842 11.4088 13.2575 12.6146C13.3947 13.5687 13.2498 14.3575 13.1769 14.6664C13.1183 14.6584 13.0484 14.6519 12.975 14.6519C12.5024 14.6519 12.3773 14.9099 12.3447 15.0639C12.2609 15.4641 12.252 16.7438 12.2511 17.0313C12.0802 17.2484 11.216 18.2709 9.97528 18.4547C9.4699 18.5281 8.99796 18.5654 8.57265 18.5654C8.20911 18.5654 7.97711 18.5373 7.88078 18.5227L7.2573 17.8093C7.50314 17.6879 7.74891 17.4318 7.68412 16.9696ZM8.47527 5.20652C8.4558 5.21491 8.43665 5.2239 8.41783 5.23347C8.41593 5.19124 8.41153 5.14842 8.40478 5.10547C8.33671 4.71366 8.07691 4.42927 7.78714 4.42927C7.76569 4.42927 7.74412 4.43091 7.72045 4.43451C7.54805 4.46324 7.41284 4.59275 7.33874 4.77635C7.40372 4.37347 7.63199 4.07517 7.90281 4.07517C8.22084 4.07517 8.4895 4.50376 8.4895 5.01104C8.4895 5.07498 8.48485 5.13859 8.47527 5.20652ZM10.9465 5.50862C10.9756 5.4159 10.9914 5.31557 10.9914 5.21144C10.9914 4.7515 10.6995 4.39117 10.327 4.39117C9.96295 4.39117 9.66676 4.75911 9.66676 5.21144C9.66676 5.24226 9.66826 5.27314 9.67115 5.30396C9.65187 5.29655 9.63305 5.28934 9.61469 5.28239C9.57279 5.1555 9.55161 5.02311 9.55161 4.88796C9.55161 4.33799 9.90308 3.89051 10.3352 3.89051C10.7673 3.89051 11.1188 4.33799 11.1188 4.88796C11.1188 5.11675 11.0557 5.33511 10.9465 5.50862ZM10.6279 6.57905C10.6216 6.60686 10.6084 6.61918 10.4619 6.69538C10.3879 6.73387 10.2959 6.78181 10.1807 6.85197L10.1037 6.8986C9.7943 7.08614 9.0699 7.52542 8.87324 7.55119C8.73967 7.56916 8.65704 7.51735 8.47127 7.39112C8.42937 7.3626 8.38478 7.3323 8.33724 7.30181C8.00235 7.08207 7.78694 6.84004 7.76261 6.74542C7.87179 6.66102 8.14242 6.44981 8.28098 6.32476C8.56222 6.06325 8.84524 5.88751 8.98531 5.88751C8.99272 5.88751 8.99941 5.88803 9.00636 5.88934C9.17095 5.91839 9.57692 6.08043 9.87345 6.19872C10.0105 6.25341 10.1289 6.30063 10.2121 6.33053C10.4745 6.42063 10.6113 6.53591 10.6279 6.57905ZM12.9851 18.8001C13.1331 18.1325 13.3036 17.2243 13.276 16.6889C13.2696 16.5673 13.2588 16.4349 13.2484 16.3069C13.2289 16.0675 13.2 15.7118 13.2299 15.6063C13.2358 15.6035 13.2423 15.6011 13.2496 15.5991C13.2508 15.9052 13.3173 16.5158 13.8056 16.7287C13.9511 16.7922 14.1174 16.8243 14.2998 16.8243C14.789 16.8243 15.3316 16.5844 15.5539 16.3621C15.6848 16.2312 15.7949 16.0711 15.872 15.9442C15.8889 15.9936 15.8993 16.0581 15.8938 16.1413C15.8648 16.5928 16.0842 17.1917 16.5018 17.4124L16.5625 17.4444C16.7113 17.5224 17.1063 17.7298 17.1126 17.8282C17.1126 17.8282 17.1093 17.8398 17.0873 17.8602C16.9883 17.9507 16.64 18.1285 16.3033 18.3005C15.7058 18.6056 15.0286 18.9513 14.7245 19.2712C14.2963 19.7218 13.812 20.0245 13.5195 20.0245C13.4843 20.0245 13.4522 20.0201 13.4237 20.011C13.1061 19.912 12.8446 19.4537 12.9851 18.8001ZM2.15805 17.097C2.12566 16.9454 2.10008 16.8257 2.12756 16.7097C2.14749 16.6238 2.57156 16.5318 2.75268 16.4925C3.0073 16.4372 3.27065 16.3801 3.44285 16.2756C3.6757 16.1345 3.8018 15.8744 3.91301 15.6449C3.99354 15.4789 4.07669 15.3073 4.17564 15.251C4.18121 15.2477 4.18974 15.2439 4.206 15.2439C4.39138 15.2439 4.78036 15.6336 5.0045 15.9824C5.06135 16.0703 5.16666 16.2465 5.2885 16.4505C5.65289 17.0602 6.15185 17.8953 6.41244 18.1752C6.64726 18.4268 7.02739 18.9105 6.93389 19.3254C6.86543 19.6473 6.50096 19.9091 6.415 19.967C6.38378 19.9741 6.34516 19.9777 6.29972 19.9777C5.80096 19.9777 4.81367 19.5627 4.28324 19.3398L4.20475 19.3068C3.90855 19.1826 3.42501 19.1044 2.9574 19.0287C2.58533 18.9684 2.07582 18.886 1.99136 18.8115C1.9229 18.7347 2.00231 18.4851 2.07234 18.2648C2.12277 18.1065 2.17484 17.9429 2.20336 17.7715C2.24382 17.4982 2.19621 17.2757 2.15805 17.097Z" fill="white"/>
</g>
<defs>
<clipPath id="clip0_94_219">
<rect width="20" height="20" fill="white" transform="translate(0 0.5)"/>
</clipPath>
</defs>
</svg>
