<svg width="424" height="33" viewBox="0 0 424 33" fill="none" xmlns="http://www.w3.org/2000/svg">
<path d="M13.5035 1.58233V8.2885H4.38167L8.56401 4.10616V30.2818L4.38167 26.0995H13.5035V32.8057H0.0551147V1.58233H13.5035Z" fill="white"/>
<path d="M45.1631 15.4994L45.8842 13.8409C47.9273 13.913 49.6339 14.2375 51.004 14.8144C52.3741 15.3913 53.3956 16.1965 54.0686 17.23C54.7657 18.2396 55.1142 19.4534 55.1142 20.8716C55.1142 22.3378 54.7777 23.6598 54.1047 24.8376C53.4557 26.0154 52.4582 26.9408 51.1122 27.6138C49.7661 28.2868 48.0836 28.6233 46.0645 28.6233H24.8283L26.8834 14.7423L24.8283 1.58233H45.3074C47.8071 1.58233 49.7661 2.17122 51.1843 3.34901C52.6024 4.50276 53.3115 6.1132 53.3115 8.18033C53.3115 9.35812 53.0471 10.4638 52.5183 11.4974C51.9895 12.5309 51.1242 13.4083 49.9223 14.1293C48.7446 14.8264 47.1582 15.2831 45.1631 15.4994ZM33.9141 26.6043L30.3807 22.458H43.108C43.9012 22.458 44.5262 22.2537 44.9829 21.845C45.4396 21.4124 45.6679 20.8355 45.6679 20.1144C45.6679 19.4654 45.4396 18.9126 44.9829 18.4559C44.5502 17.9992 43.9012 17.7709 43.0359 17.7709H32.3637V11.7137H41.6658C42.2908 11.7137 42.8076 11.5214 43.2162 11.1368C43.6488 10.7522 43.8652 10.2595 43.8652 9.65857C43.8652 9.10573 43.6729 8.64904 43.2883 8.2885C42.9037 7.92795 42.3629 7.74767 41.6658 7.74767H30.4168L33.9141 3.60139L35.7529 14.7423L33.9141 26.6043Z" fill="white"/>
<path d="M58.2591 1.58233H67.5612V28.6233H58.2591V1.58233Z" fill="white"/>
<path d="M80.2139 5.5844H89.516V28.6233H80.2139V5.5844ZM70.4791 1.58233H99.2507V9.8749H70.4791V1.58233Z" fill="white"/>
<path d="M132.329 16.9056C132.041 19.3813 131.187 21.5446 129.769 23.3954C128.375 25.2462 126.524 26.6884 124.217 27.7219C121.909 28.7555 119.265 29.2723 116.285 29.2723C113.064 29.2723 110.252 28.6834 107.848 27.5056C105.444 26.3278 103.57 24.6813 102.224 22.5661C100.902 20.4269 100.241 17.9391 100.241 15.1028C100.241 12.2665 100.902 9.79077 102.224 7.67557C103.57 5.53632 105.444 3.87781 107.848 2.70003C110.252 1.52224 113.064 0.93335 116.285 0.93335C119.265 0.93335 121.909 1.45013 124.217 2.4837C126.524 3.51726 128.375 4.95945 129.769 6.81026C131.187 8.66106 132.041 10.8243 132.329 13.3001H122.991C122.775 12.3627 122.378 11.5695 121.801 10.9205C121.224 10.2475 120.467 9.7427 119.53 9.40619C118.616 9.04564 117.535 8.86537 116.285 8.86537C114.891 8.86537 113.689 9.11775 112.679 9.62252C111.694 10.1032 110.937 10.8123 110.408 11.7497C109.879 12.6872 109.615 13.8049 109.615 15.1028C109.615 16.4008 109.879 17.5185 110.408 18.4559C110.937 19.3693 111.694 20.0784 112.679 20.5831C113.689 21.0879 114.891 21.3403 116.285 21.3403C117.535 21.3403 118.616 21.184 119.53 20.8716C120.467 20.5351 121.224 20.0423 121.801 19.3933C122.378 18.7203 122.775 17.8911 122.991 16.9056H132.329Z" fill="white"/>
<path d="M150.905 29.2723C147.612 29.2723 144.728 28.6834 142.252 27.5056C139.8 26.3278 137.889 24.6813 136.519 22.5661C135.149 20.4269 134.464 17.9391 134.464 15.1028C134.464 12.2665 135.149 9.79077 136.519 7.67557C137.889 5.53632 139.8 3.87781 142.252 2.70003C144.728 1.52224 147.612 0.93335 150.905 0.93335C154.198 0.93335 157.071 1.52224 159.522 2.70003C161.998 3.87781 163.921 5.53632 165.291 7.67557C166.661 9.79077 167.346 12.2665 167.346 15.1028C167.346 17.9391 166.661 20.4269 165.291 22.5661C163.921 24.6813 161.998 26.3278 159.522 27.5056C157.071 28.6834 154.198 29.2723 150.905 29.2723ZM150.905 20.9797C152.371 20.9797 153.633 20.7514 154.691 20.2947C155.749 19.814 156.554 19.1409 157.107 18.2756C157.683 17.3863 157.972 16.3287 157.972 15.1028C157.972 13.877 157.683 12.8314 157.107 11.9661C156.554 11.0767 155.749 10.4037 154.691 9.94701C153.633 9.46628 152.371 9.22592 150.905 9.22592C149.439 9.22592 148.177 9.46628 147.119 9.94701C146.062 10.4037 145.245 11.0767 144.668 11.9661C144.115 12.8314 143.838 13.877 143.838 15.1028C143.838 16.3287 144.115 17.3863 144.668 18.2756C145.245 19.1409 146.062 19.814 147.119 20.2947C148.177 20.7514 149.439 20.9797 150.905 20.9797Z" fill="white"/>
<path d="M170.648 1.58233H179.95V28.6233H170.648V1.58233Z" fill="white"/>
<path d="M209.332 21.845L206.808 22.458V1.58233H215.822V28.6233H204.176L190.764 7.78373L193.288 7.1708V28.6233H184.274V1.58233H196.281L209.332 21.845Z" fill="white"/>
<path d="M220.153 1.58233H229.455V28.6233H220.153V1.58233Z" fill="white"/>
<path d="M232.878 19.7178H242.324C242.42 20.2466 242.697 20.7033 243.153 21.0879C243.61 21.4484 244.235 21.7369 245.028 21.9532C245.821 22.1455 246.771 22.2416 247.876 22.2416C249.319 22.2416 250.436 22.0974 251.229 21.809C252.047 21.5205 252.455 21.0518 252.455 20.4029C252.455 19.9702 252.227 19.6097 251.77 19.3212C251.314 19.0087 250.376 18.8044 248.958 18.7083L244.487 18.4198C240.425 18.1554 237.493 17.2901 235.69 15.8239C233.887 14.3577 232.986 12.4228 232.986 10.0191C232.986 8.00006 233.563 6.31751 234.716 4.97147C235.87 3.62543 237.481 2.6159 239.548 1.94288C241.639 1.26986 244.079 0.93335 246.867 0.93335C249.583 0.93335 251.987 1.31793 254.078 2.0871C256.193 2.83223 257.864 3.88983 259.089 5.25991C260.339 6.62998 261.024 8.2284 261.145 10.0552H251.698C251.626 9.62252 251.386 9.24995 250.977 8.93748C250.593 8.62501 250.04 8.38464 249.319 8.21639C248.598 8.04813 247.72 7.964 246.687 7.964C245.365 7.964 244.319 8.0962 243.55 8.3606C242.805 8.62501 242.432 9.05766 242.432 9.65857C242.432 10.0672 242.648 10.4157 243.081 10.7042C243.538 10.9926 244.403 11.1849 245.677 11.281L250.725 11.6055C253.369 11.7738 255.508 12.1704 257.142 12.7953C258.777 13.3962 259.967 14.2375 260.712 15.3192C261.481 16.4008 261.866 17.7348 261.866 19.3212C261.866 21.3162 261.277 23.0589 260.099 24.5491C258.921 26.0394 257.263 27.2052 255.123 28.0464C253.008 28.8637 250.532 29.2723 247.696 29.2723C244.764 29.2723 242.192 28.8757 239.98 28.0825C237.769 27.2893 236.038 26.1716 234.789 24.7294C233.563 23.2872 232.926 21.6167 232.878 19.7178Z" fill="white"/>
<path d="M272.599 5.5844H281.901V28.6233H272.599V5.5844ZM262.864 1.58233H291.636V9.8749H262.864V1.58233Z" fill="white"/>
<path d="M293.723 29.056C292.81 29.056 291.969 28.8396 291.199 28.407C290.454 27.9743 289.865 27.3854 289.433 26.6403C289 25.8711 288.784 25.0299 288.784 24.1165C288.784 23.1791 289 22.3378 289.433 21.5927C289.865 20.8475 290.454 20.2586 291.199 19.826C291.969 19.3933 292.81 19.177 293.723 19.177C294.661 19.177 295.502 19.3933 296.247 19.826C296.992 20.2586 297.581 20.8475 298.014 21.5927C298.446 22.3378 298.663 23.1791 298.663 24.1165C298.663 25.0299 298.446 25.8711 298.014 26.6403C297.581 27.3854 296.992 27.9743 296.247 28.407C295.502 28.8396 294.661 29.056 293.723 29.056Z" fill="white"/>
<path d="M316.531 29.2723C313.238 29.2723 310.354 28.6834 307.878 27.5056C305.426 26.3278 303.516 24.6813 302.145 22.5661C300.775 20.4269 300.09 17.9391 300.09 15.1028C300.09 12.2665 300.775 9.79077 302.145 7.67557C303.516 5.53632 305.426 3.87781 307.878 2.70003C310.354 1.52224 313.238 0.93335 316.531 0.93335C319.824 0.93335 322.697 1.52224 325.148 2.70003C327.624 3.87781 329.547 5.53632 330.917 7.67557C332.287 9.79077 332.972 12.2665 332.972 15.1028C332.972 17.9391 332.287 20.4269 330.917 22.5661C329.547 24.6813 327.624 26.3278 325.148 27.5056C322.697 28.6834 319.824 29.2723 316.531 29.2723ZM316.531 20.9797C317.997 20.9797 319.259 20.7514 320.317 20.2947C321.375 19.814 322.18 19.1409 322.733 18.2756C323.309 17.3863 323.598 16.3287 323.598 15.1028C323.598 13.877 323.309 12.8314 322.733 11.9661C322.18 11.0767 321.375 10.4037 320.317 9.94701C319.259 9.46628 317.997 9.22592 316.531 9.22592C315.065 9.22592 313.803 9.46628 312.745 9.94701C311.688 10.4037 310.871 11.0767 310.294 11.9661C309.741 12.8314 309.465 13.877 309.465 15.1028C309.465 16.3287 309.741 17.3863 310.294 18.2756C310.871 19.1409 311.688 19.814 312.745 20.2947C313.803 20.7514 315.065 20.9797 316.531 20.9797Z" fill="white"/>
<path d="M342.692 13.1559H351.778C352.691 13.1559 353.4 12.9395 353.905 12.5069C354.41 12.0742 354.662 11.4493 354.662 10.632C354.662 9.81481 354.41 9.18986 353.905 8.75721C353.4 8.32455 352.691 8.10822 351.778 8.10822H341.394L345.576 3.92588V28.6233H336.274V1.58233H353.22C355.383 1.58233 357.27 1.96691 358.88 2.73608C360.515 3.48121 361.777 4.52679 362.666 5.87283C363.58 7.21887 364.036 8.80528 364.036 10.632C364.036 12.4107 363.58 13.9851 362.666 15.3552C361.777 16.7012 360.515 17.7468 358.88 18.492C357.27 19.2371 355.383 19.6097 353.22 19.6097H342.692V13.1559ZM345.865 15.9681H356.14L365.118 28.6233H354.482L345.865 15.9681Z" fill="white"/>
<path d="M395.663 16.9416C395.567 18.528 395.23 20.0663 394.653 21.5566C394.101 23.0228 393.271 24.3448 392.166 25.5226C391.084 26.6764 389.702 27.5897 388.019 28.2628C386.337 28.9358 384.342 29.2723 382.034 29.2723C379.943 29.2723 377.96 28.9718 376.085 28.3709C374.234 27.77 372.588 26.8807 371.146 25.7029C369.728 24.5011 368.61 23.0228 367.793 21.2682C366.975 19.4895 366.567 17.4344 366.567 15.1028C366.567 12.7713 366.975 10.7282 367.793 8.97353C368.61 7.19484 369.752 5.7166 371.218 4.53881C372.684 3.33699 374.379 2.43562 376.302 1.83471C378.225 1.2338 380.304 0.93335 382.539 0.93335C385.664 0.93335 388.332 1.40206 390.543 2.33948C392.779 3.25286 394.569 4.51478 395.915 6.12522C397.285 7.73566 398.187 9.59848 398.619 11.7137H389.281C389.065 11.0407 388.632 10.4758 387.983 10.0191C387.358 9.53839 386.589 9.17784 385.676 8.93748C384.762 8.67308 383.741 8.54088 382.611 8.54088C381.217 8.54088 380.015 8.78124 379.006 9.26197C377.996 9.71866 377.215 10.4277 376.662 11.3892C376.133 12.3507 375.869 13.5885 375.869 15.1028C375.869 16.6412 376.169 17.9151 376.77 18.9246C377.395 19.9341 378.273 20.6793 379.402 21.16C380.556 21.6407 381.914 21.8811 383.477 21.8811C384.991 21.8811 386.337 21.7128 387.515 21.3763C388.692 21.0158 389.642 20.475 390.363 19.7539C391.108 19.0087 391.565 18.0713 391.733 16.9416H395.663ZM384.053 19.4294V14.1654H398.836V28.6233H392.382L391.012 18.2756L392.634 19.4294H384.053Z" fill="white"/>
<path d="M410.442 1.58233H423.891V32.8057H410.442V26.0995H419.564L415.382 30.2818V4.10616L419.564 8.2885H410.442V1.58233Z" fill="white"/>
</svg>
