<svg width="20" height="21" viewBox="0 0 20 21" fill="none" xmlns="http://www.w3.org/2000/svg">
<g clip-path="url(#clip0_94_213)">
<path d="M15.4587 11.126C15.4326 8.5916 17.525 7.37873 17.6178 7.31787C16.4426 5.60073 14.6139 5.36453 13.9603 5.33845C12.4055 5.17905 10.9231 6.25426 10.1319 6.25426C9.3436 6.25426 8.12349 5.36018 6.83237 5.38337C5.13407 5.40945 3.57052 6.37163 2.69529 7.89025C0.931777 10.9507 2.24318 15.4834 3.96177 17.9685C4.80223 19.1828 5.80498 20.5464 7.11929 20.4986C8.38577 20.4479 8.86396 19.6784 10.3956 19.6784C11.9273 19.6784 12.3577 20.4986 13.6966 20.4739C15.0602 20.4479 15.9224 19.235 16.7556 18.0178C17.7206 16.6078 18.1177 15.2414 18.1423 15.1733C18.1104 15.1559 15.4862 14.1517 15.4587 11.126Z" fill="white"/>
<path d="M12.9402 3.69374C13.6372 2.84893 14.1096 1.67229 13.9806 0.5C12.9735 0.540574 11.7577 1.16802 11.0346 2.01427C10.3869 2.76344 9.82322 3.95892 9.97392 5.10803C11.0955 5.19642 12.2432 4.5371 12.9402 3.69374Z" fill="white"/>
</g>
<defs>
<clipPath id="clip0_94_213">
<rect width="20" height="20" fill="white" transform="translate(0 0.5)"/>
</clipPath>
</defs>
</svg>
