<svg width="229" height="98" viewBox="0 0 229 98" fill="none" xmlns="http://www.w3.org/2000/svg">
<path d="M2.57334 2.23982V95.6207H9.28668V97.8605H0V0H9.28362V2.23982H2.57334ZM28.4292 31.844V36.5684H28.5638C29.7404 34.8435 31.297 33.4114 33.1138 32.3825C34.8885 31.3942 36.9233 30.8985 39.2121 30.8985C41.4152 30.8985 43.4255 31.3269 45.2462 32.1836C47.0668 33.0373 48.4498 34.5428 49.3923 36.703C50.4265 35.1731 51.8279 33.8237 53.6057 32.6548C55.3804 31.4829 57.4795 30.8985 59.909 30.8985C61.7511 30.8985 63.4585 31.1249 65.0312 31.5716C66.604 32.0245 67.9503 32.7436 69.0764 33.735C70.1963 34.7233 71.0745 36.0176 71.7048 37.6149C72.3321 39.2121 72.6472 41.1337 72.6472 43.3888V66.7447H63.079V46.9658C63.079 45.7939 63.0331 44.6923 62.9444 43.655C62.8803 42.715 62.6285 41.7973 62.2039 40.9562C61.7965 40.1888 61.1759 39.5555 60.417 39.1326C59.6306 38.6858 58.5627 38.4594 57.2133 38.4594C55.8669 38.4594 54.7776 38.7195 53.9454 39.2335C53.1131 39.7537 52.4613 40.4269 51.9901 41.2592C51.5032 42.1382 51.1836 43.1 51.0477 44.0957C50.8887 45.1572 50.8089 46.229 50.809 47.3024V66.7447H41.2377V47.1678C41.2377 46.1335 41.2163 45.1085 41.1735 44.0957C41.1388 43.1359 40.9444 42.1887 40.5982 41.2928C40.2679 40.4464 39.679 39.7258 38.9153 39.2335C38.1259 38.7195 36.9692 38.4594 35.4424 38.4594C34.8361 38.4849 34.2356 38.5878 33.6554 38.7654C32.8648 38.9932 32.1302 39.3829 31.4982 39.9098C30.8006 40.4728 30.2069 41.2836 29.7113 42.3393C29.2186 43.398 28.9708 44.7811 28.9708 46.4915V66.7447H19.3965V31.844H28.4292ZM78.7822 36.9754C79.7493 35.509 81.0401 34.2843 82.5551 33.3953C84.1533 32.4685 85.8963 31.8178 87.7109 31.4707C89.6089 31.09 91.5399 30.8984 93.4757 30.8985C95.229 30.8985 97.0037 31.0209 98.7999 31.2687C100.599 31.5166 102.239 32.0031 103.723 32.7222C105.204 33.4412 106.416 34.4418 107.364 35.7239C108.307 37.009 108.778 38.7072 108.778 40.8216V58.9788C108.778 60.5577 108.87 62.0632 109.047 63.5013C109.225 64.9425 109.54 66.0226 109.99 66.7447H100.287C99.92 65.6519 99.6938 64.5167 99.6138 63.3667C98.0839 64.9425 96.2877 66.0471 94.2223 66.6744C92.1686 67.3027 90.033 67.6224 87.8853 67.6229C86.2208 67.6229 84.6725 67.4179 83.2344 67.011C81.8621 66.6406 80.5781 65.9986 79.4585 65.123C78.3716 64.258 77.5054 63.1475 76.931 61.8826C76.3221 60.5791 76.0192 59.0247 76.0192 57.2255C76.0192 55.2458 76.368 53.6149 77.0657 52.3297C77.7603 51.0477 78.6568 50.0257 79.7614 49.2576C80.863 48.4927 82.1206 47.9205 83.5373 47.538C84.9509 47.1555 86.3799 46.8526 87.818 46.6262C89.2561 46.4028 90.6698 46.2223 92.062 46.0876C93.4573 45.953 94.6935 45.751 95.7706 45.4787C96.8507 45.2094 97.7014 44.8147 98.3317 44.2976C98.962 43.7805 99.2527 43.0278 99.2099 42.0333C99.2099 41.0021 99.0416 40.179 98.7019 39.5732C98.3877 38.9884 97.9229 38.4982 97.3556 38.1534C96.7542 37.8032 96.0899 37.5745 95.4004 37.4802C94.608 37.3651 93.8082 37.3088 93.0075 37.3119C91.1196 37.3119 89.6386 37.7158 88.5585 38.5267C87.4814 39.3345 86.8511 40.687 86.6706 42.5749H77.0993C77.234 40.3259 77.7939 38.4594 78.7822 36.9754ZM97.6891 50.5091C97.049 50.7195 96.3959 50.8881 95.7339 51.014C95.008 51.1535 94.2773 51.2658 93.543 51.3506C92.7781 51.4424 92.0131 51.5556 91.2512 51.6872C90.5325 51.8223 89.8232 52.0032 89.1276 52.2288C88.4764 52.4322 87.8625 52.7402 87.3101 53.1406C86.7899 53.5231 86.3768 54.0096 86.0617 54.591C85.7465 55.1785 85.5904 55.919 85.5904 56.8186C85.5904 57.6753 85.7465 58.3944 86.0617 58.9788C86.3768 59.5663 86.8021 60.0253 87.3437 60.3649C87.8823 60.7015 88.5095 60.9371 89.2317 61.0718C89.9477 61.2064 90.6912 61.2737 91.4531 61.2737C93.3411 61.2737 94.8006 60.9616 95.8349 60.3282C96.8691 59.7009 97.631 58.9452 98.1297 58.067C98.6193 57.1919 98.9253 56.3045 99.0385 55.4049C99.1487 54.5022 99.2068 53.7832 99.2068 53.2416V49.6615C98.7642 50.0448 98.2476 50.3333 97.6891 50.5091ZM133.988 31.844V38.2574H126.978V55.5365C126.978 57.1582 127.247 58.2383 127.786 58.7769C128.324 59.3185 129.405 59.5877 131.02 59.5877C131.562 59.5877 132.076 59.5663 132.572 59.5204C133.064 59.4745 133.538 59.4072 133.988 59.3185V66.7417C133.095 66.8857 132.194 66.9766 131.289 67.014C130.324 67.0576 129.358 67.08 128.392 67.0813C126.911 67.0813 125.503 66.9773 124.178 66.7753C122.947 66.6053 121.758 66.2046 120.675 65.5942C119.658 65.0039 118.829 64.1384 118.282 63.0974C117.698 62.0173 117.404 60.6005 117.404 58.8442V38.2574H111.608V31.844H117.404V21.3792H126.978V31.844H133.985H133.988ZM147.669 31.844V38.3248H147.804C148.72 36.1335 150.269 34.265 152.253 32.9578C153.235 32.3084 154.301 31.7968 155.423 31.437C156.555 31.0763 157.737 30.8946 158.926 30.8985C159.556 30.8985 160.251 31.0117 161.016 31.2351V40.1454C160.481 40.0424 159.942 39.9637 159.4 39.9098C158.796 39.8436 158.188 39.8099 157.58 39.8088C155.826 39.8088 154.342 40.1025 153.131 40.687C151.97 41.2296 150.962 42.053 150.199 43.0828C149.436 44.1439 148.896 45.3496 148.614 46.6262C148.29 48.066 148.132 49.5382 148.143 51.014V66.7417H138.572V31.844H147.669ZM165.061 26.4433V18.5428H174.632V26.4433H165.064H165.061ZM174.632 31.844V66.7417H165.064V31.844H174.635H174.632ZM179.62 31.844H190.541L196.676 40.9562L202.74 31.844H213.324L201.865 48.1806L214.741 66.7447H203.817L196.541 55.7415L189.259 66.7447H178.543L191.079 48.3825L179.62 31.844ZM226.427 95.6207V2.23982H219.713V0H229V97.8605H219.713V95.6207H226.427Z" fill="white"/>
</svg>
