<svg width="79" height="75" viewBox="0 0 79 75" fill="none" xmlns="http://www.w3.org/2000/svg">
<path d="M37.1194 45.3697C37.0375 47.7366 35.1833 49.655 32.8028 49.8305C30.5861 49.9923 28.3478 50.0761 26.1525 50.0761C23.9572 50.0761 21.7209 49.9923 19.5041 49.8305C17.1234 49.655 15.2674 47.7366 15.1875 45.3697C14.8327 35.0091 14.8327 24.5139 15.1856 14.1767C15.2675 11.8078 17.1217 9.8914 19.5022 9.71593C21.7189 9.55406 23.9572 9.47031 26.1525 9.47031C28.3478 9.47031 30.5861 9.55406 32.8049 9.71593C35.1834 9.8914 37.0395 11.808 37.1214 14.1767C37.1741 15.7053 37.2169 17.2358 37.2539 18.7702H46.1738C46.1367 17.1325 46.0899 15.5006 46.0335 13.8706C45.7975 6.9414 40.3911 1.33031 33.458 0.8214C31.0228 0.642025 28.5663 0.552338 26.1525 0.552338C23.7408 0.552338 21.2822 0.642025 18.8491 0.8214C11.9161 1.33031 6.50954 6.9414 6.27173 13.8706C5.91111 24.4106 5.91111 35.1103 6.27361 45.6737C6.50954 52.6048 11.9159 58.2141 18.8491 58.7248C21.2822 58.9042 23.7408 58.9939 26.1525 58.9939C28.5663 58.9939 31.0228 58.9042 33.458 58.7248C40.3891 58.2141 45.7955 52.6048 46.0335 45.6737C46.0627 44.8022 46.09 43.9287 46.1153 43.0534H37.1916C37.1702 43.8275 37.1467 44.5995 37.1194 45.3697Z" fill="url(#paint0_linear_1_789)"/>
<path d="M26.1531 69.7211C20.2505 69.7211 14.298 69.5498 8.35533 69.2102C4.08439 68.9661 0.669389 65.568 0.399233 61.2986C-0.132173 52.9028 -0.133111 44.4784 0.397358 36.097C0.667514 31.8278 4.08267 28.43 8.3533 28.1861C14.2906 27.847 20.2508 27.6758 26.1531 27.6758C32.0555 27.6758 38.0158 27.847 43.953 28.1861C48.2238 28.43 51.6388 31.828 51.9089 36.097C52.4394 44.4784 52.4384 52.9028 51.907 61.2986C51.6367 65.568 48.2219 68.9661 43.951 69.2102C38.0083 69.5498 32.0558 69.7211 26.1531 69.7211Z" fill="url(#paint1_linear_1_789)"/>
<path d="M73.0508 73.82C57.3323 74.4078 41.6138 74.4078 25.8953 73.82C23.2802 73.7222 21.1119 71.7836 20.6859 69.2016C19.9486 64.7317 19.9486 60.262 20.6859 55.7923C21.1119 53.2103 23.2802 51.2717 25.8953 51.1739C41.6138 50.5861 57.3323 50.5861 73.0508 51.1739C75.6659 51.2717 77.8344 53.2103 78.2602 55.7923C78.9975 60.262 78.9975 64.7319 78.2602 69.2016C77.8344 71.7836 75.6659 73.7222 73.0508 73.82Z" fill="url(#paint2_linear_1_789)"/>
<path d="M35.2522 59.1929C34.9238 58.624 34.1964 58.4292 33.6275 58.7576L30.7192 60.4367V57.0784C30.7192 56.4215 30.1867 55.889 29.5299 55.889C28.873 55.889 28.3405 56.4215 28.3405 57.0784V60.4367L25.432 58.7575C24.8631 58.4289 24.1356 58.624 23.8074 59.1928C23.4789 59.7617 23.6738 60.489 24.2427 60.8175L27.1511 62.4967L24.2427 64.1759C23.6738 64.5044 23.4789 65.2317 23.8074 65.8006C24.0277 66.1822 24.4274 66.3954 24.8385 66.3954C25.0402 66.3954 25.2447 66.344 25.432 66.2359L28.3405 64.5567V67.915C28.3405 68.5719 28.873 69.1044 29.5299 69.1044C30.1867 69.1044 30.7192 68.5719 30.7192 67.915V64.5567L33.6275 66.2358C33.8149 66.3439 34.0194 66.3953 34.2211 66.3953C34.632 66.3953 35.0319 66.1819 35.2522 65.8004C35.5806 65.2315 35.3858 64.5042 34.8169 64.1758L31.9085 62.4965L34.8169 60.8173C35.3858 60.4892 35.5806 59.7619 35.2522 59.1929Z" fill="#665E66"/>
<path d="M48.3399 59.193C48.0114 58.6241 47.2839 58.4292 46.7152 58.7577L43.8067 60.4369V57.0786C43.8067 56.4217 43.2742 55.8892 42.6174 55.8892C41.9605 55.8892 41.428 56.4217 41.428 57.0786V60.4369L38.5195 58.7577C37.9506 58.4291 37.2233 58.6242 36.8949 59.193C36.5664 59.7619 36.7613 60.4892 37.3302 60.8177L40.2386 62.4969L37.3302 64.1761C36.7613 64.5045 36.5664 65.2319 36.8949 65.8008C37.1152 66.1823 37.5149 66.3956 37.9259 66.3956C38.1277 66.3956 38.3322 66.3442 38.5195 66.2361L41.428 64.5569V67.9152C41.428 68.572 41.9605 69.1045 42.6174 69.1045C43.2742 69.1045 43.8067 68.572 43.8067 67.9152V64.5569L46.7152 66.2361C46.9025 66.3442 47.107 66.3956 47.3088 66.3956C47.7197 66.3956 48.1195 66.1822 48.3399 65.8008C48.6683 65.2319 48.4734 64.5045 47.9045 64.1761L44.9961 62.4969L47.9045 60.8177C48.4733 60.4892 48.6683 59.7619 48.3399 59.193Z" fill="#665E66"/>
<path d="M61.4273 59.193C61.0989 58.6241 60.3714 58.4292 59.8027 58.7577L56.8942 60.4369V57.0786C56.8942 56.4217 56.3617 55.8892 55.7048 55.8892C55.048 55.8892 54.5155 56.4217 54.5155 57.0786V60.4369L51.607 58.7577C51.0381 58.4291 50.3108 58.6242 49.9823 59.193C49.6539 59.7619 49.8488 60.4892 50.4177 60.8177L53.3261 62.4969L50.4177 64.1761C49.8488 64.5045 49.6539 65.2319 49.9823 65.8008C50.2027 66.1823 50.6023 66.3956 51.0134 66.3956C51.2152 66.3956 51.4197 66.3442 51.607 66.2361L54.5155 64.5569V67.9152C54.5155 68.572 55.048 69.1045 55.7048 69.1045C56.3617 69.1045 56.8942 68.572 56.8942 67.9152V64.5569L59.8027 66.2361C59.99 66.3442 60.1945 66.3956 60.3963 66.3956C60.8072 66.3956 61.207 66.1822 61.4273 65.8008C61.7558 65.2319 61.5609 64.5045 60.992 64.1761L58.0836 62.4969L60.992 60.8177C61.5609 60.4892 61.7559 59.7619 61.4273 59.193Z" fill="#665E66"/>
<path d="M74.0797 64.1759L71.1713 62.4967L74.0797 60.8175C74.6486 60.4891 74.8435 59.7617 74.515 59.1928C74.1866 58.6239 73.4592 58.4291 72.8903 58.7575L69.9821 60.4366V57.0783C69.9821 56.4214 69.4496 55.8889 68.7927 55.8889C68.1358 55.8889 67.6033 56.4214 67.6033 57.0783V60.4366L64.6949 58.7573C64.1261 58.4288 63.3986 58.6239 63.0702 59.1927C62.7417 59.7616 62.9366 60.4889 63.5055 60.8174L66.4139 62.4966L63.5055 64.1758C62.9366 64.5042 62.7417 65.2316 63.0702 65.8005C63.2905 66.182 63.6902 66.3953 64.1013 66.3953C64.303 66.3953 64.5075 66.3439 64.6949 66.2358L67.6033 64.5566V67.9148C67.6033 68.5717 68.1358 69.1042 68.7927 69.1042C69.4496 69.1042 69.9821 68.5717 69.9821 67.9148V64.5566L72.8903 66.2356C73.0777 66.3438 73.2822 66.3952 73.4839 66.3952C73.8949 66.3952 74.2947 66.1817 74.515 65.8003C74.8435 65.2317 74.6486 64.5044 74.0797 64.1759Z" fill="#665E66"/>
<path d="M50.3953 21.2372C50.2249 21.2372 50.0519 21.2005 49.8875 21.1227C49.2938 20.8419 49.0402 20.1328 49.321 19.5389L51.615 14.6887C51.8958 14.095 52.6046 13.8411 53.1988 14.1222C53.7925 14.403 54.0461 15.112 53.7653 15.7059L51.4713 20.5561C51.2681 20.9856 50.841 21.2372 50.3953 21.2372Z" fill="white"/>
<path d="M58.0389 29.6734C57.8684 29.6734 57.6955 29.6367 57.5312 29.5589L52.6811 27.2648C52.0873 26.9841 51.8336 26.275 52.1145 25.6812C52.3953 25.0873 53.1044 24.8334 53.6981 25.1147L58.5483 27.4087C59.142 27.6895 59.3958 28.3986 59.1148 28.9923C58.9117 29.4217 58.4845 29.6734 58.0389 29.6734Z" fill="white"/>
<path d="M52.8933 23.9923C52.405 23.9923 51.9474 23.6894 51.7735 23.2033C51.5522 22.5848 51.8741 21.9042 52.4927 21.6828L57.5444 19.8753C58.1627 19.6536 58.8436 19.9761 59.0649 20.5945C59.2861 21.213 58.9642 21.8936 58.3456 22.115L53.2939 23.9225C53.1614 23.9698 53.0263 23.9923 52.8933 23.9923Z" fill="white"/>
<defs>
<linearGradient id="paint0_linear_1_789" x1="26.0877" y1="58.9937" x2="26.0877" y2="0.552338" gradientUnits="userSpaceOnUse">
<stop stop-color="#1B1B1B"/>
<stop offset="1" stop-color="white"/>
</linearGradient>
<linearGradient id="paint1_linear_1_789" x1="26.1532" y1="69.721" x2="26.1532" y2="27.6758" gradientUnits="userSpaceOnUse">
<stop stop-color="#00B59C"/>
<stop offset="1" stop-color="#9CFFAC"/>
</linearGradient>
<linearGradient id="paint2_linear_1_789" x1="49.4731" y1="74.2609" x2="49.4731" y2="50.733" gradientUnits="userSpaceOnUse">
<stop stop-color="#C3FFE8"/>
<stop offset="0.9973" stop-color="#F0FFF4"/>
</linearGradient>
</defs>
</svg>
