<svg width="72" height="72" viewBox="0 0 72 72" fill="none" xmlns="http://www.w3.org/2000/svg">
<path d="M9.96236 37.3704C12.0119 36.8213 13.5336 35.0946 13.8198 32.9915C15.0034 24.3154 21.2277 16.7567 30.201 14.3523C35.1466 13.0271 40.1349 13.5073 44.5233 15.3448L41.7923 16.5494C40.8595 16.961 40.3093 17.936 40.4389 18.9472C40.5681 19.9579 41.3473 20.7633 42.3529 20.9261L59.91 23.7768C60.6795 23.9011 61.4593 23.6287 61.9833 23.0522C62.5061 22.4754 62.7027 21.6733 62.5053 20.9198L57.9606 3.63375C57.7029 2.65014 56.8299 1.95313 55.8146 1.91833C54.7978 1.88394 53.8795 2.51944 53.5547 3.48272L52.2647 7.30704C44.9881 3.18185 36.1594 1.7921 27.4601 4.12308C14.2695 7.65748 5.08701 18.7515 3.31783 31.4963C3.07128 33.2632 3.72748 35.0349 5.06328 36.2157C6.39923 37.3971 8.23898 37.8322 9.96236 37.3704Z" fill="url(#paint0_linear_1_810)"/>
<path d="M65.1165 38.5311C63.7804 37.3497 61.9405 36.9147 60.2173 37.3765C58.1677 37.9257 56.6461 39.6523 56.3599 41.7554C55.1761 50.4315 48.9517 57.9903 39.9787 60.3946C35.0329 61.7198 30.0446 61.2396 25.6561 59.4022L28.3873 58.1979C29.32 57.7863 29.8701 56.8111 29.7408 55.7997C29.6115 54.7892 28.8323 53.9836 27.8267 53.8208L10.2696 50.9701C9.50004 50.8459 8.72031 51.1181 8.19618 51.6947C7.67349 52.2715 7.47682 53.0736 7.67433 53.8269L12.2189 71.1131C12.4766 72.0967 13.3494 72.7937 14.3648 72.8285C15.3817 72.8629 16.3 72.2272 16.6247 71.2638L17.9147 67.4395C25.1913 71.565 34.0201 72.9547 42.7194 70.6237C55.9102 67.0893 65.0924 55.9955 66.8614 43.2507C67.1084 41.4837 66.4522 39.7121 65.1165 38.5311Z" fill="url(#paint1_linear_1_810)"/>
<defs>
<linearGradient id="paint0_linear_1_810" x1="34.0024" y1="30.9288" x2="26.8627" y2="4.28314" gradientUnits="userSpaceOnUse">
<stop stop-color="#00B59C"/>
<stop offset="1" stop-color="#9CFFAC"/>
</linearGradient>
<linearGradient id="paint1_linear_1_810" x1="43.3169" y1="70.4637" x2="36.1772" y2="43.818" gradientUnits="userSpaceOnUse">
<stop stop-color="#C3FFE8"/>
<stop offset="0.9973" stop-color="#F0FFF4"/>
</linearGradient>
</defs>
</svg>
