<svg width="120" height="85" viewBox="0 0 120 85" fill="none" xmlns="http://www.w3.org/2000/svg">
<path d="M102.262 31.8529C100.889 30.4799 98.6625 30.4799 97.2898 31.8529L82.3601 46.7826C81.7008 47.4421 81.3302 48.3365 81.3302 49.2691C81.3302 50.2016 81.701 51.096 82.3605 51.7551C86.779 56.1712 89.7682 61.7144 91.0059 67.7854C91.3397 69.4227 92.7797 70.5988 94.4508 70.5988H115.814C116.822 70.5988 117.782 70.1659 118.449 69.4103C119.117 68.6547 119.427 67.6488 119.303 66.6482C117.671 53.5682 111.62 41.2108 102.262 31.8529ZM59.9747 67.1027C56.3037 67.1027 53.2943 69.8622 52.9741 73.5213C52.6165 77.6097 55.8443 81.1656 59.9824 81.1656C63.6532 81.1656 66.6628 78.4063 66.983 74.7468C67.3406 70.6584 64.113 67.1027 59.9747 67.1027ZM17.5781 7.31781H3.51562C1.57406 7.31781 0 8.89187 0 10.8334C0 12.775 1.57406 14.3491 3.51562 14.3491H17.5781C19.5197 14.3491 21.0938 12.775 21.0938 10.8334C21.0938 8.89187 19.5197 7.31781 17.5781 7.31781ZM102.422 14.3491H105.938V17.8647C105.938 19.8062 107.512 21.3803 109.453 21.3803C111.395 21.3803 112.969 19.8062 112.969 17.8647V14.3491H116.484C118.426 14.3491 120 12.775 120 10.8334C120 8.89187 118.426 7.31781 116.484 7.31781H112.969V3.80219C112.969 1.86062 111.395 0.28656 109.453 0.28656C107.512 0.28656 105.938 1.86062 105.938 3.80219V7.31781H102.422C100.48 7.31781 98.9062 8.89187 98.9062 10.8334C98.9062 12.775 100.48 14.3491 102.422 14.3491Z" fill="url(#paint0_linear_1_819)"/>
<path d="M81.6894 44.4048L90.2672 35.8272L101.591 24.5036C90.3012 13.2161 75.2923 7 59.3297 7C29.2388 7 3.7442 29.4838 0.0270127 59.2994C-0.0976748 60.2999 0.213107 61.3056 0.880372 62.0613C1.54764 62.8169 2.5074 63.2498 3.51568 63.2498H24.879C26.5498 63.2498 27.9898 62.0737 28.3238 60.4363C31.3137 45.7701 44.3537 35.125 59.3297 35.125C67.7665 35.125 75.7074 38.4205 81.6894 44.4048ZM87.9968 46.1622L72.4615 55.1315C69.4665 51.7466 65.3602 49.6691 60.8403 49.2738C51.1625 48.427 42.6439 55.5735 41.7971 65.253C41.5836 67.6931 41.877 70.0989 42.6308 72.3543L39.2886 74.2839C36.1857 76.0755 37.4593 80.8448 41.0497 80.8448C42.5626 80.8448 43.1919 80.0198 46.1551 78.4387C49.1501 81.8235 53.2564 83.901 57.7761 84.2964C67.4532 85.1437 75.9725 77.9966 76.8193 68.3172C77.0328 65.8771 76.7394 63.4713 75.9856 61.2159L91.5122 52.2515C93.1936 51.2807 93.7697 49.1306 92.799 47.4491C91.8287 45.7677 89.6783 45.1916 87.9968 46.1622ZM62.8107 67.0914C62.6415 69.0257 60.9364 70.4566 59.0021 70.2873C57.0678 70.1181 55.6369 68.4128 55.8062 66.4788C55.9754 64.5445 57.6804 63.1136 59.6147 63.2828C61.549 63.452 62.9799 65.1573 62.8107 67.0914Z" fill="url(#paint1_linear_1_819)"/>
<defs>
<linearGradient id="paint0_linear_1_819" x1="60" y1="81.1656" x2="60" y2="0.28656" gradientUnits="userSpaceOnUse">
<stop stop-color="#C3FFE8"/>
<stop offset="0.9973" stop-color="#F0FFF4"/>
</linearGradient>
<linearGradient id="paint1_linear_1_819" x1="50.7957" y1="84.3644" x2="50.7957" y2="7" gradientUnits="userSpaceOnUse">
<stop stop-color="#00B59C"/>
<stop offset="1" stop-color="#9CFFAC"/>
</linearGradient>
</defs>
</svg>
