<svg width="80" height="71" viewBox="0 0 80 71" fill="none" xmlns="http://www.w3.org/2000/svg">
<path d="M30.861 52.7445C24.9777 59.7182 16.4653 63.4383 7.86408 63.4383H3.90626V49.3757H9.08439C13.0328 49.3757 16.8 47.7257 19.4766 44.8367L30.861 52.7445Z" fill="url(#paint0_linear_1_768)"/>
<path d="M2.34375 41.9538C1.04938 41.9538 0 43.0032 0 44.2976V68.0476C0 69.342 1.04938 70.3914 2.34375 70.3914C3.63813 70.3914 4.68751 69.342 4.68751 68.0476V44.2976C4.68751 43.0032 3.63813 41.9538 2.34375 41.9538Z" fill="#547983"/>
<path d="M40.6485 47.4804L35.9626 54.3585C35.2282 55.4382 33.7563 55.707 32.6891 54.9648L17.311 44.2851C16.2438 43.5429 15.9828 42.0726 16.7313 41.0101L21.7016 33.9491L40.6485 47.4804Z" fill="url(#paint1_linear_1_768)"/>
<path d="M79.4798 44.6273L68.4736 58.2648C67.6906 59.2362 66.2859 59.419 65.2814 58.6961C55.2732 51.492 55.8989 51.9917 55.6064 51.6117L73.3908 37.4038L78.9783 41.2195C80.1048 41.9877 80.3411 43.5596 79.4798 44.6273Z" fill="url(#paint2_linear_1_768)"/>
<path d="M74.3085 33.4346L29.2415 0.888475C27.2173 -0.573715 24.4067 -0.193714 22.8429 1.75285L8.03181 20.1882C6.34743 22.2852 6.77259 25.3751 8.96196 26.9387L48.8325 55.4114C49.6845 56.0198 50.8383 55.9898 51.6575 55.3351L74.3993 37.1659C75.6077 36.2006 75.566 34.3426 74.3085 33.4346Z" fill="url(#paint3_linear_1_768)"/>
<path d="M58.7501 37.1882C60.0445 37.1882 61.0939 36.1389 61.0939 34.8444C61.0939 33.55 60.0445 32.5007 58.7501 32.5007C57.4557 32.5007 56.4064 33.55 56.4064 34.8444C56.4064 36.1389 57.4557 37.1882 58.7501 37.1882Z" fill="white"/>
<defs>
<linearGradient id="paint0_linear_1_768" x1="17.3836" y1="63.4383" x2="17.3836" y2="44.8367" gradientUnits="userSpaceOnUse">
<stop stop-color="#C3FFE8"/>
<stop offset="0.9973" stop-color="#F0FFF4"/>
</linearGradient>
<linearGradient id="paint1_linear_1_768" x1="28.4763" y1="55.3839" x2="28.4763" y2="33.9491" gradientUnits="userSpaceOnUse">
<stop stop-color="#C3FFE8"/>
<stop offset="0.9973" stop-color="#F0FFF4"/>
</linearGradient>
<linearGradient id="paint2_linear_1_768" x1="67.8032" y1="37.4038" x2="67.8032" y2="59.1366" gradientUnits="userSpaceOnUse">
<stop stop-color="#344949"/>
<stop offset="1" stop-color="#63909C"/>
</linearGradient>
<linearGradient id="paint3_linear_1_768" x1="41.1397" y1="55.8476" x2="41.1397" y2="0" gradientUnits="userSpaceOnUse">
<stop stop-color="#00B59C"/>
<stop offset="1" stop-color="#9CFFAC"/>
</linearGradient>
</defs>
</svg>
