<svg width="110" height="90" viewBox="0 0 110 90" fill="none" xmlns="http://www.w3.org/2000/svg">
<path d="M87.8978 64.0472C90.8659 64.0447 93.8003 63.4186 96.511 62.2095C99.2216 61.0004 101.648 59.2353 103.633 57.0285C105.618 54.8218 107.117 52.2226 108.033 49.3994C108.949 46.5762 109.262 43.5921 108.951 40.6403C108.64 37.6886 107.712 34.8351 106.228 32.2647C104.744 29.6944 102.736 27.4646 100.335 25.7197C97.9341 23.9749 95.1932 22.7541 92.2902 22.1363C89.3871 21.5185 86.3866 21.5175 83.4831 22.1334C81.8067 15.86 78.1061 10.3155 72.9558 6.36067C67.8055 2.40588 61.4935 0.26207 55 0.26207C48.5064 0.26207 42.1945 2.40588 37.0442 6.36067C31.8938 10.3155 28.1932 15.86 26.5169 22.1334C23.6134 21.5175 20.613 21.5185 17.7099 22.1362C14.8069 22.754 12.066 23.9749 9.66496 25.7196C7.2639 27.4644 5.2562 29.6941 3.77196 32.2644C2.28772 34.8347 1.36007 37.6882 1.0491 40.6399C0.73814 43.5916 1.05081 46.5757 1.96684 49.3988C2.88288 52.222 4.38185 54.8212 6.36662 57.028C8.35138 59.2348 10.7777 61 13.4882 62.2092C16.1988 63.4184 19.1332 64.0446 22.1012 64.0472H87.8978Z" fill="url(#paint0_linear_1_834)"/>
<path d="M55 89.7375C69.1884 89.7375 80.6903 78.2355 80.6903 64.0472C80.6903 49.8588 69.1884 38.3569 55 38.3569C40.8116 38.3569 29.3097 49.8588 29.3097 64.0472C29.3097 78.2355 40.8116 89.7375 55 89.7375Z" fill="url(#paint1_linear_1_834)"/>
<path d="M50.2234 63.8612V75.9794H59.4991V63.8612H66.7225L54.8612 52L43 63.8612H50.2234Z" fill="#EDF5FF"/>
<path d="M59.6377 80.8481H50.3621C49.9269 80.8481 49.5096 80.6753 49.202 80.3676C48.8943 80.0599 48.7214 79.6426 48.7214 79.2075C48.7214 78.7724 48.8943 78.3551 49.202 78.0474C49.5096 77.7397 49.9269 77.5669 50.3621 77.5669H59.6377C60.0728 77.5669 60.4901 77.7397 60.7978 78.0474C61.1055 78.3551 61.2783 78.7724 61.2783 79.2075C61.2783 79.6426 61.1055 80.0599 60.7978 80.3676C60.4901 80.6753 60.0728 80.8481 59.6377 80.8481Z" fill="#EDF5FF"/>
<defs>
<linearGradient id="paint0_linear_1_834" x1="55" y1="64.0472" x2="55" y2="0.26207" gradientUnits="userSpaceOnUse">
<stop stop-color="#C3FFE8"/>
<stop offset="0.9973" stop-color="#F0FFF4"/>
</linearGradient>
<linearGradient id="paint1_linear_1_834" x1="55.0001" y1="89.7374" x2="55.0001" y2="38.3569" gradientUnits="userSpaceOnUse">
<stop stop-color="#00B59C"/>
<stop offset="1" stop-color="#9CFFAC"/>
</linearGradient>
</defs>
</svg>
