<svg width="72" height="72" viewBox="0 0 72 72" fill="none" xmlns="http://www.w3.org/2000/svg">
<g clip-path="url(#clip0_1_778)">
<path d="M63.3691 17.253L37.1801 1.67287C36.4523 1.24 35.5458 1.24 34.818 1.67287L8.62891 17.253C7.92899 17.6695 7.49991 18.424 7.49991 19.2384V28.1323C7.49991 46.8648 18.323 63.9741 35.1649 70.4947C35.7011 70.7023 36.2964 70.7026 36.8331 70.4947C53.6342 63.9903 64.498 46.9181 64.498 28.1323V19.2384C64.4981 18.4239 64.0692 17.6695 63.3691 17.253Z" fill="url(#paint0_linear_1_778)"/>
<path d="M32.9349 45.2868L47.4133 30.8083C48.3156 29.9063 48.3156 28.4436 47.4133 27.5413C46.5111 26.6393 45.0483 26.6393 44.1463 27.5413L31.3013 40.3864L27.8536 36.9387C26.9516 36.0367 25.4888 36.0367 24.5867 36.9387C23.6845 37.8409 23.6845 39.3036 24.5867 40.2057L29.6679 45.2868C30.5701 46.1889 32.0328 46.1889 32.9349 45.2868Z" fill="url(#paint1_linear_1_778)"/>
</g>
<defs>
<linearGradient id="paint0_linear_1_778" x1="35.999" y1="70.6504" x2="35.999" y2="1.34822" gradientUnits="userSpaceOnUse">
<stop stop-color="#00B59C"/>
<stop offset="1" stop-color="#9CFFAC"/>
</linearGradient>
<linearGradient id="paint1_linear_1_778" x1="36" y1="45.9634" x2="36" y2="26.8648" gradientUnits="userSpaceOnUse">
<stop stop-color="#C3FFE8"/>
<stop offset="0.9973" stop-color="#F0FFF4"/>
</linearGradient>
<clipPath id="clip0_1_778">
<rect width="72" height="72" fill="white"/>
</clipPath>
</defs>
</svg>
